<?xml version="1.0" standalone="no"?>
<!DOCTYPE svg PUBLIC "-//W3C//DTD SVG 20010904//EN"
 "http://www.w3.org/TR/2001/REC-SVG-20010904/DTD/svg10.dtd">
<svg version="1.0" xmlns="http://www.w3.org/2000/svg"
 width="225.000000pt" height="225.000000pt" viewBox="0 0 225.000000 225.000000"
 preserveAspectRatio="xMidYMid meet">
<metadata>
Created by potrace 1.14, written by Peter Selinger 2001-2017
</metadata>
<g transform="translate(0.000000,225.000000) scale(0.100000,-0.100000)"
fill="#000000" stroke="none">
<path d="M1 1708 c1 -478 3 -533 14 -463 23 143 73 295 125 380 21 35 26 80
10 90 -55 34 122 251 314 386 38 27 73 49 78 49 21 0 3 -20 -49 -55 -104 -69
-299 -272 -280 -291 3 -3 54 44 114 104 117 119 254 218 253 185 0 -5 -22 -22
-48 -39 -107 -70 -272 -236 -272 -274 0 -19 14 -8 69 54 59 69 134 134 208
184 57 38 97 40 42 2 -84 -58 -166 -130 -220 -194 -62 -74 -68 -86 -44 -86 8
0 15 4 15 9 0 17 146 157 214 205 36 26 73 46 81 44 10 -2 -11 -23 -57 -55
-86 -62 -147 -122 -221 -218 -49 -64 -56 -70 -94 -73 -40 -3 -41 -4 -71 -72
-62 -138 -77 -216 -76 -410 1 -151 4 -186 23 -255 13 -44 26 -92 28 -108 7
-36 -20 -77 -52 -77 -51 0 -73 51 -94 211 -5 40 -9 -124 -10 -438 l-1 -503
1125 0 1125 0 -2 568 c-1 312 -3 547 -5 522 -11 -135 -59 -307 -125 -448 -23
-48 -28 -71 -23 -95 20 -94 17 -137 -10 -193 -59 -121 -225 -237 -340 -238
-77 -1 -98 21 -93 96 8 105 117 279 212 337 18 12 63 27 100 35 41 8 73 21 82
32 41 54 104 335 104 468 0 93 -28 260 -61 354 -34 100 -36 142 -11 165 38 34
90 10 113 -51 19 -49 41 -156 49 -232 4 -44 8 135 9 428 l1 502 -502 -1 c-327
-1 -482 -4 -443 -10 307 -44 612 -239 785 -501 33 -50 60 -95 60 -100 0 -5
-11 -6 -24 -2 -30 7 -63 -9 -71 -36 -10 -30 -18 -25 -43 30 -58 126 -185 276
-319 376 -130 97 -298 167 -466 194 -109 18 -341 8 -432 -18 -38 -12 -71 -19
-73 -17 -10 10 185 62 298 79 14 2 -210 4 -497 5 l-523 1 1 -542z m1303 263
c87 -23 239 -92 313 -142 69 -47 188 -164 239 -235 81 -113 127 -240 146 -401
50 -434 -238 -835 -673 -938 -149 -35 -369 -13 -507 50 -65 30 -65 40 -1 21
76 -23 229 -39 309 -32 213 19 381 98 536 251 179 177 267 401 251 640 -25
366 -262 667 -590 745 -368 88 -793 -117 -962 -465 -58 -118 -85 -218 -91
-335 -7 -114 -14 -140 -25 -85 -14 69 -10 232 7 308 51 228 225 453 434 562
54 28 171 64 243 76 86 13 283 3 371 -20z m-212 -81 c85 -24 117 -127 60 -191
-21 -24 -39 -32 -74 -36 -58 -7 -118 12 -118 37 0 23 30 182 36 192 7 11 52
10 96 -2z m268 -90 c65 -33 79 -56 61 -102 -13 -34 -54 -62 -80 -53 -18 5 -19
3 -14 -28 4 -29 2 -36 -16 -42 -11 -3 -25 -4 -30 0 -16 9 -55 141 -48 159 9
22 40 20 79 -4 35 -21 58 -26 58 -12 0 5 -19 17 -41 28 -58 26 -71 41 -59 65
14 25 20 24 90 -11z m243 -179 c60 -63 64 -70 45 -89 -21 -21 -46 -13 -78 28
-17 22 -36 37 -41 34 -5 -3 9 -26 31 -51 32 -37 38 -49 29 -64 -15 -30 -40
-23 -80 24 -20 23 -40 39 -44 35 -4 -4 9 -26 29 -48 20 -22 36 -49 36 -59 0
-23 -25 -34 -48 -22 -25 13 -102 107 -102 124 0 16 138 146 156 147 6 0 36
-27 67 -59z m-345 -94 c12 -11 22 -31 22 -43 0 -16 10 -29 30 -39 47 -24 48
-55 5 -139 -27 -54 -36 -82 -33 -105 5 -36 5 -36 -33 -14 -56 33 -51 78 16
146 47 47 58 84 30 107 -11 9 -15 9 -15 1 0 -7 -22 -36 -50 -65 -55 -58 -58
-66 -32 -67 10 -1 8 -4 -8 -8 -36 -10 -40 -64 -8 -98 l23 -24 -28 10 c-66 25
-114 80 -101 115 5 14 -6 16 -77 16 -46 0 -91 5 -99 11 -11 7 14 9 85 6 l100
-4 59 51 c83 71 97 112 57 160 -15 18 -15 18 9 11 14 -4 35 -17 48 -28z m416
-160 c9 -15 7 -22 -11 -36 -12 -10 -19 -21 -16 -25 4 -4 26 12 49 35 44 43 77
49 81 14 2 -13 -24 -48 -72 -100 -64 -69 -76 -78 -92 -69 -10 7 -17 22 -16 35
4 44 -18 98 -41 101 -25 4 -35 46 -14 59 7 5 37 8 67 7 39 -2 57 -8 65 -21z
m-776 -52 c184 -84 212 -185 52 -185 -125 0 -250 86 -250 173 0 54 94 60 198
12z m-213 -22 c4 -13 -4 -26 -29 -46 -22 -18 -36 -38 -36 -51 0 -49 90 -99
213 -118 84 -13 93 -28 16 -28 -161 0 -349 78 -349 145 0 28 44 69 100 94 57
25 76 26 85 4z m-90 -203 c53 -23 179 -50 232 -50 l37 0 -32 -33 c-38 -40 -43
-84 -11 -113 17 -15 35 -19 94 -18 119 2 216 58 255 149 15 35 24 42 64 53 26
7 44 17 41 22 -3 5 0 7 8 4 8 -3 29 9 46 26 28 25 41 30 83 30 63 0 101 -20
122 -64 21 -44 20 -71 -3 -121 -32 -71 -108 -125 -196 -139 -31 -5 -46 -15
-64 -42 -23 -33 -91 -94 -106 -94 -4 0 -24 14 -45 30 -97 77 -252 121 -305 86
-36 -24 -34 -71 6 -126 l31 -43 -28 7 c-93 22 -204 103 -250 182 -33 57 -63
163 -71 253 l-6 73 26 -26 c15 -15 47 -35 72 -46z m1252 44 c3 -9 7 -56 7
-103 1 -99 7 -93 -127 -132 -69 -21 -79 -21 -92 -8 -27 27 -7 46 76 70 43 13
79 28 79 32 0 4 -33 7 -74 6 -80 -2 -96 3 -96 31 0 24 19 30 101 30 97 0 86
19 -13 22 -73 3 -83 5 -86 22 -7 33 23 44 123 45 81 2 96 -1 102 -15z m-694
-43 c34 -34 -16 -123 -94 -165 -69 -38 -197 -50 -229 -21 -27 24 -25 47 6 84
69 82 272 147 317 102z m64 -7 c-3 -3 -12 -4 -19 -1 -8 3 -5 6 6 6 11 1 17 -2
13 -5z m-681 -199 c14 -35 14 -35 -26 -74 -22 -21 -40 -46 -40 -57 0 -97 204
-181 485 -199 155 -11 346 12 500 59 11 4 2 -2 -20 -12 -198 -92 -673 -102
-925 -20 -129 42 -201 92 -216 153 -13 52 49 114 163 161 32 13 59 24 61 24 2
0 10 -16 18 -35z m491 -115 c82 -40 133 -86 133 -119 0 -53 -93 -69 -207 -36
-89 26 -170 117 -149 170 17 46 109 40 223 -15z m-806 -119 c45 -98 114 -195
208 -290 155 -156 340 -254 561 -298 142 -28 379 -14 525 31 11 4 4 -1 -15
-10 -108 -50 -317 -78 -479 -64 -287 26 -529 144 -730 356 -77 81 -173 221
-205 299 -20 48 -21 46 14 39 23 -5 34 -1 52 19 l23 26 9 -22 c5 -12 22 -51
37 -86z"/>
<path d="M1045 1818 c-2 -7 -6 -29 -9 -49 -6 -36 3 -49 35 -49 14 0 49 39 49
55 0 35 -65 72 -75 43z"/>
<path d="M733 1280 c11 -7 69 -25 130 -40 62 -15 121 -31 131 -36 13 -5 17 -4
13 3 -4 6 -37 18 -74 27 -146 37 -179 45 -198 51 -19 6 -19 6 -2 -5z"/>
<path d="M1386 1091 c-9 -10 -21 -44 -26 -76 -5 -32 -15 -73 -21 -92 -6 -19
-9 -36 -7 -38 12 -12 88 25 120 58 54 56 60 128 14 159 -20 14 -63 8 -80 -11z"/>
<path d="M1098 1035 c-20 -7 -74 -21 -120 -30 -76 -16 -138 -38 -138 -51 0 -2
9 0 19 5 10 6 70 22 132 37 63 15 125 32 139 40 32 17 16 17 -32 -1z"/>
<path d="M841 746 c15 -9 75 -27 133 -41 58 -13 120 -32 136 -40 17 -9 30 -13
30 -10 0 13 -87 46 -181 68 -57 13 -113 27 -124 31 -11 4 -8 0 6 -8z"/>
<path d="M1993 292 c-34 -42 -114 -89 -181 -106 -53 -14 -68 -36 -25 -36 68 0
193 86 233 159 16 31 7 25 -27 -17z"/>
</g>
</svg>
